<svg xmlns="http://www.w3.org/2000/svg" viewBox="0 0 46 31.67"><defs><style>.cls-1{fill:#141219;}</style></defs><g id="Capa_2" data-name="Capa 2"><g id="Capa_1-2" data-name="Capa 1"><path class="cls-1" d="M23,31.67c-8.26,0-16.12-5.18-22.74-15A1.49,1.49,0,0,1,.26,15C6.88,5.18,14.74,0,23,0S39.12,5.18,45.74,15a1.49,1.49,0,0,1,0,1.69C39.12,26.49,31.26,31.67,23,31.67ZM3.35,15.84C9.25,24.22,16,28.65,23,28.65s13.75-4.43,19.65-12.81C36.75,7.45,30,3,23,3S9.25,7.45,3.35,15.84Z"/><path class="cls-1" d="M30.16,15.84a7.15,7.15,0,1,1-2.1-5.07A7.12,7.12,0,0,1,30.16,15.84Z"/><path class="cls-1" d="M23,24.51A8.69,8.69,0,1,1,29.13,22,8.68,8.68,0,0,1,23,24.51Zm0-14.32a5.65,5.65,0,0,0-5.65,5.65,5.6,5.6,0,0,0,1.66,4,5.84,5.84,0,0,0,8,0,5.64,5.64,0,0,0,0-8A5.67,5.67,0,0,0,23,10.19Z"/></g></g></svg>
