<svg width="16" height="16" viewBox="0 0 16 16" fill="none" xmlns="http://www.w3.org/2000/svg">
<g id="users-2">
<path id="Vector" d="M9.33301 12.6665C9.33301 11.6056 8.91158 10.5882 8.16143 9.83808C7.41129 9.08793 6.39387 8.6665 5.33301 8.6665C4.27214 8.6665 3.25473 9.08793 2.50458 9.83808C1.75444 10.5882 1.33301 11.6056 1.33301 12.6665" stroke="#1F2937" stroke-linecap="round" stroke-linejoin="round"/>
<path id="Vector_2" d="M5.33366 8.66683C6.80642 8.66683 8.00033 7.47292 8.00033 6.00016C8.00033 4.5274 6.80642 3.3335 5.33366 3.3335C3.8609 3.3335 2.66699 4.5274 2.66699 6.00016C2.66699 7.47292 3.8609 8.66683 5.33366 8.66683Z" stroke="#1F2937" stroke-linecap="round" stroke-linejoin="round"/>
<path id="Vector_3" d="M14.667 12.6668C14.667 11.606 14.2456 10.5885 13.4954 9.8384C12.7453 9.08826 11.7279 8.66683 10.667 8.66683C11.3742 8.66683 12.0525 8.38588 12.5526 7.88578C13.0527 7.38568 13.3337 6.70741 13.3337 6.00016C13.3337 5.29292 13.0527 4.61464 12.5526 4.11454C12.0525 3.61445 11.3742 3.3335 10.667 3.3335" stroke="#1F2937" stroke-linecap="round" stroke-linejoin="round"/>
</g>
</svg>
