<svg xmlns="http://www.w3.org/2000/svg" viewBox="0 0 49 19.61"><defs><style>.cls-1{fill:#141219;stroke:#141219;stroke-linecap:round;stroke-linejoin:round;stroke-width:3px;}</style></defs><g id="Capa_2" data-name="Capa 2"><g id="Capa_1-2" data-name="Capa 1"><path class="cls-1" d="M1.5,1.5A34.11,34.11,0,0,0,9.17,8.36M47.5,1.5a34.11,34.11,0,0,1-7.67,6.86M19.39,12.51l-1.28,5.6m1.28-5.6a27,27,0,0,0,10.22,0m-10.22,0A28.7,28.7,0,0,1,9.17,8.36m20.44,4.15,1.28,5.6m-1.28-5.6A28.7,28.7,0,0,0,39.83,8.36m0,0L43.67,13M9.17,8.36,5.33,13"/></g></g></svg>
